<?xml version="1.0" standalone="no"?>
<!DOCTYPE svg PUBLIC "-//W3C//DTD SVG 20010904//EN"
 "http://www.w3.org/TR/2001/REC-SVG-20010904/DTD/svg10.dtd">
<svg version="1.0" xmlns="http://www.w3.org/2000/svg"
 width="337.000000pt" height="382.000000pt" viewBox="0 0 337.000000 382.000000"
 preserveAspectRatio="xMidYMid meet">
<metadata>
Created by potrace 1.16, written by Peter Selinger 2001-2019
</metadata>
<g transform="translate(0.000000,382.000000) scale(0.100000,-0.100000)"
fill="#000000" stroke="none">
<path d="M1433 3496 c-80 -30 -1236 -665 -1312 -721 -65 -48 -94 -97 -111
-184 -14 -75 -13 -1368 1 -1447 15 -84 49 -136 122 -187 64 -45 1151 -647
1266 -700 92 -43 194 -49 277 -15 65 26 1162 627 1261 690 82 53 128 105 149
170 16 48 18 115 22 705 3 682 -2 802 -37 870 -23 46 -79 99 -146 140 -106 65
-1193 658 -1245 680 -74 30 -164 30 -247 -1z m617 -837 c361 -198 449 -250
467 -278 l23 -34 0 -477 0 -477 -22 -33 c-39 -57 -278 -182 -300 -157 -1 1 -5
191 -8 422 l-5 420 -21 3 c-34 5 -409 -203 -437 -242 -22 -31 -22 -36 -27
-461 -3 -236 -8 -435 -13 -442 -13 -21 -94 -62 -134 -69 -46 -7 -127 23 -162
60 -20 21 -20 33 -23 446 -3 405 -4 427 -23 459 -17 29 -78 66 -395 240 -206
114 -383 211 -394 217 -16 10 -18 18 -12 58 9 61 46 102 130 145 105 53 111
51 446 -134 386 -213 376 -208 425 -203 27 3 93 33 183 82 172 94 191 108 176
132 -6 10 -159 99 -340 199 -292 161 -329 184 -329 206 0 20 19 35 130 97 118
66 134 72 175 69 36 -3 134 -53 490 -248z m-1305 -662 c84 -47 134 -81 142
-97 18 -35 19 -670 1 -688 -21 -21 -47 -13 -151 44 -119 66 -154 95 -167 143
-13 49 -13 626 0 652 6 10 18 19 28 19 9 0 75 -33 147 -73z"/>
</g>
</svg>
